HIERARCHY
ROOT Joint1
{
	OFFSET 0.000000 0.000000 0.000000
	CHANNELS 6 Xposition Yposition Zposition Xrotation Yrotation Zrotation
	JOINT Joint2
	{
		OFFSET -0.000000 0.000000 1.456275
		CHANNELS 6 Xposition Yposition Zposition Xrotation Yrotation Zrotation
		JOINT Joint3
		{
			OFFSET -0.000000 0.000002 1.471446
			CHANNELS 6 Xposition Yposition Zposition Xrotation Yrotation Zrotation
			JOINT Joint4
			{
				OFFSET 0.625745 0.000000 0.917755
				CHANNELS 6 Xposition Yposition Zposition Xrotation Yrotation Zrotation
				JOINT Joint5
				{
					OFFSET -0.629534 0.000001 0.940221
					CHANNELS 6 Xposition Yposition Zposition Xrotation Yrotation Zrotation
					JOINT Joint6
					{
						OFFSET -0.000001 0.113772 1.960660
						CHANNELS 6 Xposition Yposition Zposition Xrotation Yrotation Zrotation
						JOINT Joint7
						{
							OFFSET -0.669733 -0.113771 0.388340
							CHANNELS 6 Xposition Yposition Zposition Xrotation Yrotation Zrotation
							End Site
							{
								OFFSET 0.005509 0.005509 0.438980
							}
						}
					}
				}
			}
		}
	}
}
MOTION
Frames: 22
Frame Time: 0.041667
0.000000 0.000000 0.000000 -0.000000 1.019410 -15.149430 -0.000000 -0.000000 1.456275 -0.000000 -44.951828 0.000004 -0.000000 0.000002 1.471446 -0.000003 -1.133458 65.445595 0.625745 0.000000 0.917755 -0.000290 89.709829 0.000361 -0.629534 0.000001 0.940220 0.000002 1.709734 -19.107922 -0.000001 0.113772 1.960660 -88.303882 110.326516 0.000009 -0.669733 -0.113771 0.388340 -0.300453 3.482147 111.528089 
0.000000 0.000000 0.000000 -0.000000 1.019410 -15.661453 -0.000000 0.000000 1.456275 0.000002 -44.950797 0.000001 -0.000000 0.000002 1.471446 -0.000002 -1.133457 67.660059 0.625745 0.000000 0.917755 0.000061 88.177209 0.000084 -0.629534 0.000001 0.940221 -0.000003 1.709734 -19.753460 -0.000001 0.113772 1.960660 -88.303882 111.014855 0.000009 -0.669733 -0.113771 0.388340 -0.287579 3.476461 110.735555 
0.000000 0.000000 0.000000 -0.000000 1.019410 -16.138639 -0.000000 0.000000 1.456275 -0.000000 -44.949823 0.000000 -0.000000 0.000002 1.471445 -0.000003 -1.133458 69.723855 0.625745 0.000000 0.917755 -0.000011 86.748873 0.000017 -0.629533 0.000001 0.940221 0.000001 1.709734 -20.355084 -0.000001 0.113772 1.960661 -88.303868 111.656360 0.000004 -0.669733 -0.113771 0.388341 -0.275657 3.471005 109.996939 
0.000000 0.000000 0.000000 -0.000000 1.019410 -16.531559 -0.000000 -0.000000 1.456275 -0.000001 -44.949024 -0.000000 -0.000000 0.000002 1.471446 -0.000002 -1.133456 71.423179 0.625745 0.000000 0.917755 -0.000008 85.572783 0.000024 -0.629534 0.000001 0.940221 0.000001 1.709736 -20.850454 -0.000001 0.113772 1.960661 -88.303875 112.184573 -0.000003 -0.669733 -0.113771 0.388341 -0.265889 3.466395 109.388779 
0.000000 0.000000 0.000000 -0.000000 1.019410 -16.872092 -0.000000 0.000000 1.456275 -0.000001 -44.948334 0.000003 -0.000000 0.000002 1.471446 -0.000003 -1.133457 72.895979 0.625744 0.000000 0.917755 -0.000015 84.553473 0.000019 -0.629534 0.000001 0.940221 0.000001 1.709738 -21.279796 -0.000001 0.113772 1.960660 -88.303875 112.642380 0.000003 -0.669733 -0.113771 0.388341 -0.257464 3.462315 108.861693 
0.000000 0.000000 0.000000 -0.000000 1.019410 -17.212485 -0.000000 -0.000000 1.456275 -0.000000 -44.947648 -0.000000 -0.000000 0.000002 1.471446 -0.000005 -1.133457 74.368131 0.625745 0.000001 0.917755 -0.000036 83.534607 0.000009 -0.629534 0.000001 0.940220 0.000001 1.709738 -21.708949 -0.000001 0.113773 1.960660 -88.303875 113.099975 0.000003 -0.669732 -0.113771 0.388341 -0.249085 3.458162 108.334846 
0.000000 0.000000 0.000000 -0.000000 1.019410 -17.604954 -0.000000 0.000000 1.456275 0.000000 -44.946849 0.000000 -0.000001 0.000002 1.471446 -0.000001 -1.133457 76.065522 0.625745 0.000001 0.917755 -0.000017 82.359849 -0.000002 -0.629534 0.000001 0.940221 0.000001 1.709736 -22.203758 -0.000001 0.113772 1.960660 -88.303882 113.627587 0.000002 -0.669733 -0.113771 0.388340 -0.239467 3.453277 107.727376 
0.000000 0.000000 0.000000 -0.000000 1.019410 -18.081515 -0.000000 0.000000 1.456275 0.000001 -44.945886 -0.000001 -0.000000 0.000002 1.471446 -0.000005 -1.133454 78.126600 0.625745 0.000001 0.917755 -0.000015 80.933384 0.000017 -0.629534 0.000001 0.940221 0.000004 1.709736 -22.804588 -0.000001 0.113772 1.960661 -88.303882 114.268245 0.000008 -0.669733 -0.113772 0.388341 -0.227859 3.447209 106.989763 
0.000000 0.000000 0.000000 -0.000000 1.019410 -18.593308 -0.000000 -0.000000 1.456275 0.000000 -44.944844 -0.000002 -0.000000 0.000002 1.471446 -0.000004 -1.133453 80.340073 0.625745 0.000000 0.917755 -0.000008 79.401461 0.000005 -0.629534 0.000001 0.940221 0.000001 1.709737 -23.449836 -0.000001 0.113772 1.960660 -88.303875 114.956264 0.000005 -0.669733 -0.113771 0.388340 -0.215484 3.440528 106.197619 
0.000000 0.000000 0.000000 -0.000000 1.019410 -19.071264 -0.000000 0.000000 1.456275 0.000001 -44.943878 -0.000002 -0.000001 0.000002 1.471446 -0.000004 -1.133451 82.407189 0.625745 0.000001 0.917755 -0.000007 77.970824 0.000009 -0.629533 0.000001 0.940221 -0.000000 1.709735 -24.052427 -0.000001 0.113772 1.960660 -88.303882 115.598793 -0.000001 -0.669733 -0.113771 0.388340 -0.204012 3.434134 105.457861 
0.000000 0.000000 0.000000 -0.000000 1.019410 -19.466222 -0.000000 0.000000 1.456275 -0.000001 -44.943075 -0.000000 -0.000000 0.000002 1.471446 -0.000006 -1.133453 84.115344 0.625745 0.000000 0.917755 -0.000006 76.788620 0.000007 -0.629534 0.000001 0.940221 0.000001 1.709735 -24.550376 -0.000000 0.113772 1.960661 -88.303875 116.129772 0.000005 -0.669733 -0.113771 0.388340 -0.194593 3.428742 104.846573 
0.000000 0.000000 0.000000 -0.000000 1.019410 -19.808660 -0.000000 0.000000 1.456275 0.000002 -44.942385 -0.000001 -0.000000 0.000002 1.471446 -0.000005 -1.133453 85.596354 0.625745 0.000000 0.917755 -0.000003 75.763621 0.000002 -0.629534 0.000001 0.940221 0.000002 1.709737 -24.982110 -0.000001 0.113772 1.960661 -88.303875 116.590127 0.000008 -0.669734 -0.113771 0.388340 -0.186474 3.423982 104.316571 
0.000000 0.000000 0.000000 -0.000000 1.019410 -20.148981 -0.000000 -0.000000 1.456275 -0.000002 -44.941695 -0.000001 -0.000001 0.000002 1.471446 -0.000006 -1.133455 87.068205 0.625745 0.000001 0.917755 -0.000001 74.744966 0.000006 -0.629534 0.000001 0.940221 0.000001 1.709736 -25.411174 -0.000001 0.113772 1.960661 -88.303875 117.047627 0.000005 -0.669733 -0.113771 0.388340 -0.178450 3.419181 103.789840 
0.000000 0.000000 0.000000 -0.000000 1.019410 -20.537576 -0.000000 0.000000 1.456275 -0.000000 -44.940903 -0.000000 -0.000000 0.000002 1.471446 -0.000006 -1.133451 88.748855 0.625745 0.000000 0.917755 -0.000004 73.581806 0.000004 -0.629534 0.000001 0.940220 0.000000 1.709737 -25.901098 -0.000001 0.113772 1.960661 -88.303875 117.570041 0.000006 -0.669733 -0.113772 0.388340 -0.169345 3.413606 103.188408 
0.000000 0.000000 0.000000 -0.000000 1.019410 -21.006583 -0.000000 -0.000000 1.456275 -0.000000 -44.939957 0.000002 -0.000000 0.000002 1.471445 -0.000006 -1.133453 90.777264 0.625745 0.000001 0.917755 -0.000003 72.177956 0.000006 -0.629533 0.000001 0.940221 0.000002 1.709736 -26.492412 -0.000001 0.113772 1.960660 -88.303875 118.200535 0.000005 -0.669734 -0.113771 0.388340 -0.158428 3.406751 102.462530 
0.000000 0.000000 0.000000 -0.000000 1.019410 -21.515082 -0.000000 0.000000 1.456275 0.000002 -44.938926 0.000001 -0.000000 0.000002 1.471446 -0.000007 -1.133453 92.976476 0.625745 0.000000 0.917755 -0.000006 70.655896 0.000008 -0.629533 0.000001 0.940220 -0.000001 1.709735 -27.133502 -0.000001 0.113772 1.960660 -88.303875 118.884128 0.000003 -0.669733 -0.113771 0.388340 -0.146696 3.399166 101.675535 
0.000000 0.000000 0.000000 -0.000000 1.019410 -22.003892 -0.000000 0.000000 1.456275 -0.000001 -44.937928 -0.000001 -0.000000 0.000002 1.471446 -0.000006 -1.133454 95.090522 0.625744 0.000000 0.917755 -0.000006 69.192781 0.000002 -0.629534 0.000001 0.940221 0.000001 1.709737 -27.749771 -0.000001 0.113772 1.960661 -88.303875 119.541261 0.000004 -0.669733 -0.113771 0.388340 -0.135517 3.391721 100.919023 
0.000000 0.000000 0.000000 -0.000000 1.019410 -22.427756 -0.000000 -0.000000 1.456275 -0.000002 -44.937071 -0.000004 -0.000000 0.000002 1.471446 -0.000008 -1.133454 96.923711 0.625745 0.000000 0.917755 -0.000006 67.924046 0.000001 -0.629534 0.000001 0.940221 0.000000 1.709736 -28.284170 -0.000001 0.113772 1.960660 -88.303875 120.111076 0.000005 -0.669733 -0.113771 0.388341 -0.125903 3.385149 100.263024 
0.000000 0.000000 0.000000 -0.000000 1.019410 -22.797157 -0.000000 0.000000 1.456275 0.000000 -44.936317 0.000001 -0.000000 0.000002 1.471446 -0.000005 -1.133451 98.521340 0.625744 0.000000 0.917755 -0.000003 66.818327 0.000000 -0.629533 0.000001 0.940221 0.000001 1.709737 -28.749888 -0.000001 0.113772 1.960661 -88.303875 120.607672 0.000004 -0.669733 -0.113771 0.388340 -0.117586 3.379330 99.691317 
0.000000 0.000000 0.000000 -0.000000 1.019410 -23.136504 -0.000000 0.000000 1.456275 0.000002 -44.935640 0.000001 -0.000000 0.000002 1.471446 -0.000010 -1.133453 99.988983 0.625744 0.000000 0.917755 -0.000007 65.802589 0.000000 -0.629534 0.000001 0.940221 -0.000001 1.709736 -29.177728 -0.000001 0.113772 1.960660 -88.303875 121.063874 0.000003 -0.669733 -0.113771 0.388340 -0.109998 3.373915 99.166137 
0.000000 0.000000 0.000000 -0.000000 1.019410 -23.470200 -0.000000 0.000000 1.456275 -0.000002 -44.934961 0.000002 -0.000000 0.000002 1.471446 -0.000006 -1.133457 101.432189 0.625744 0.000000 0.917755 -0.000002 64.803756 0.000004 -0.629534 0.000001 0.940221 0.000001 1.709736 -29.598444 -0.000001 0.113772 1.960661 -88.303875 121.512480 0.000004 -0.669733 -0.113771 0.388341 -0.102585 3.368522 98.649699 
0.000000 0.000000 0.000000 -0.000000 1.019410 -23.817966 -0.000000 0.000000 1.456275 0.000001 -44.934257 -0.000002 -0.000000 0.000002 1.471446 -0.000005 -1.133451 102.936244 0.625744 0.000000 0.917755 -0.000003 63.762808 0.000003 -0.629534 0.000001 0.940221 0.000001 1.709737 -30.036894 -0.000000 0.113772 1.960660 -88.303875 121.979993 0.000003 -0.669733 -0.113771 0.388341 -0.094912 3.362826 98.111487 
